<mxfile host="Electron" modified="2024-03-01T10:38:33.892Z" agent="Mozilla/5.0 (Windows NT 10.0; Win64; x64) AppleWebKit/537.36 (KHTML, like Gecko) draw.io/22.1.16 Chrome/120.0.6099.109 Electron/28.1.0 Safari/537.36" etag="ZerJQoasExCoSW6_6PPo" version="22.1.16" type="device">
  <diagram name="Page-1" id="2YBvvXClWsGukQMizWep">
    <mxGraphModel dx="1050" dy="628" grid="1" gridSize="10" guides="1" tooltips="1" connect="1" arrows="1" fold="1" page="1" pageScale="1" pageWidth="850" pageHeight="1100" math="0" shadow="0">
      <root>
        <mxCell id="0" />
        <mxCell id="1" parent="0" />
        <mxCell id="aM9ryv3xv72pqoxQDRHE-1" value="&lt;span style=&quot;font-size: 10px;&quot;&gt;UCX App/ACL.Erss&lt;/span&gt;" style="shape=umlLifeline;perimeter=lifelinePerimeter;whiteSpace=wrap;html=1;container=0;dropTarget=0;collapsible=0;recursiveResize=0;outlineConnect=0;portConstraint=eastwest;newEdgeStyle={&quot;edgeStyle&quot;:&quot;elbowEdgeStyle&quot;,&quot;elbow&quot;:&quot;vertical&quot;,&quot;curved&quot;:0,&quot;rounded&quot;:0};" parent="1" vertex="1">
          <mxGeometry x="6" y="40" width="72" height="720" as="geometry" />
        </mxCell>
        <mxCell id="aM9ryv3xv72pqoxQDRHE-2" value="" style="html=1;points=[];perimeter=orthogonalPerimeter;outlineConnect=0;targetShapes=umlLifeline;portConstraint=eastwest;newEdgeStyle={&quot;edgeStyle&quot;:&quot;elbowEdgeStyle&quot;,&quot;elbow&quot;:&quot;vertical&quot;,&quot;curved&quot;:0,&quot;rounded&quot;:0};" parent="aM9ryv3xv72pqoxQDRHE-1" vertex="1">
          <mxGeometry x="31" y="81" width="10" height="600" as="geometry" />
        </mxCell>
        <mxCell id="1E91Kec0WUk58oKre7sG-1" value="Qualifier&lt;br style=&quot;border-color: var(--border-color);&quot;&gt;Service" style="shape=umlLifeline;perimeter=lifelinePerimeter;whiteSpace=wrap;html=1;container=0;dropTarget=0;collapsible=0;recursiveResize=0;outlineConnect=0;portConstraint=eastwest;newEdgeStyle={&quot;edgeStyle&quot;:&quot;elbowEdgeStyle&quot;,&quot;elbow&quot;:&quot;vertical&quot;,&quot;curved&quot;:0,&quot;rounded&quot;:0};" parent="1" vertex="1">
          <mxGeometry x="289" y="40" width="78" height="721" as="geometry" />
        </mxCell>
        <mxCell id="1E91Kec0WUk58oKre7sG-2" value="" style="html=1;points=[];perimeter=orthogonalPerimeter;outlineConnect=0;targetShapes=umlLifeline;portConstraint=eastwest;newEdgeStyle={&quot;edgeStyle&quot;:&quot;elbowEdgeStyle&quot;,&quot;elbow&quot;:&quot;vertical&quot;,&quot;curved&quot;:0,&quot;rounded&quot;:0};" parent="1E91Kec0WUk58oKre7sG-1" vertex="1">
          <mxGeometry x="35" y="80" width="10" height="600" as="geometry" />
        </mxCell>
        <mxCell id="1E91Kec0WUk58oKre7sG-3" value="Decision&lt;br&gt;Service" style="shape=umlLifeline;perimeter=lifelinePerimeter;whiteSpace=wrap;html=1;container=0;dropTarget=0;collapsible=0;recursiveResize=0;outlineConnect=0;portConstraint=eastwest;newEdgeStyle={&quot;edgeStyle&quot;:&quot;elbowEdgeStyle&quot;,&quot;elbow&quot;:&quot;vertical&quot;,&quot;curved&quot;:0,&quot;rounded&quot;:0};" parent="1" vertex="1">
          <mxGeometry x="703" y="41" width="80" height="719" as="geometry" />
        </mxCell>
        <mxCell id="1E91Kec0WUk58oKre7sG-4" value="" style="html=1;points=[];perimeter=orthogonalPerimeter;outlineConnect=0;targetShapes=umlLifeline;portConstraint=eastwest;newEdgeStyle={&quot;edgeStyle&quot;:&quot;elbowEdgeStyle&quot;,&quot;elbow&quot;:&quot;vertical&quot;,&quot;curved&quot;:0,&quot;rounded&quot;:0};" parent="1E91Kec0WUk58oKre7sG-3" vertex="1">
          <mxGeometry x="35" y="80" width="10" height="600" as="geometry" />
        </mxCell>
        <mxCell id="1E91Kec0WUk58oKre7sG-7" value="Kafka" style="shape=umlLifeline;perimeter=lifelinePerimeter;whiteSpace=wrap;html=1;container=0;dropTarget=0;collapsible=0;recursiveResize=0;outlineConnect=0;portConstraint=eastwest;newEdgeStyle={&quot;edgeStyle&quot;:&quot;elbowEdgeStyle&quot;,&quot;elbow&quot;:&quot;vertical&quot;,&quot;curved&quot;:0,&quot;rounded&quot;:0};" parent="1" vertex="1">
          <mxGeometry x="443" y="40" width="80" height="720" as="geometry" />
        </mxCell>
        <mxCell id="1E91Kec0WUk58oKre7sG-8" value="" style="html=1;points=[];perimeter=orthogonalPerimeter;outlineConnect=0;targetShapes=umlLifeline;portConstraint=eastwest;newEdgeStyle={&quot;edgeStyle&quot;:&quot;elbowEdgeStyle&quot;,&quot;elbow&quot;:&quot;vertical&quot;,&quot;curved&quot;:0,&quot;rounded&quot;:0};" parent="1E91Kec0WUk58oKre7sG-7" vertex="1">
          <mxGeometry x="35" y="80" width="10" height="600" as="geometry" />
        </mxCell>
        <mxCell id="1E91Kec0WUk58oKre7sG-10" value="Pathway" style="shape=umlLifeline;perimeter=lifelinePerimeter;whiteSpace=wrap;html=1;container=0;dropTarget=0;collapsible=0;recursiveResize=0;outlineConnect=0;portConstraint=eastwest;newEdgeStyle={&quot;edgeStyle&quot;:&quot;elbowEdgeStyle&quot;,&quot;elbow&quot;:&quot;vertical&quot;,&quot;curved&quot;:0,&quot;rounded&quot;:0};" parent="1" vertex="1">
          <mxGeometry x="615" y="40" width="80" height="722" as="geometry" />
        </mxCell>
        <mxCell id="1E91Kec0WUk58oKre7sG-11" value="" style="html=1;points=[];perimeter=orthogonalPerimeter;outlineConnect=0;targetShapes=umlLifeline;portConstraint=eastwest;newEdgeStyle={&quot;edgeStyle&quot;:&quot;elbowEdgeStyle&quot;,&quot;elbow&quot;:&quot;vertical&quot;,&quot;curved&quot;:0,&quot;rounded&quot;:0};" parent="1E91Kec0WUk58oKre7sG-10" vertex="1">
          <mxGeometry x="35" y="80" width="10" height="600" as="geometry" />
        </mxCell>
        <mxCell id="1E91Kec0WUk58oKre7sG-17" value="Qualifiers" style="html=1;verticalAlign=bottom;endArrow=open;dashed=1;endSize=8;edgeStyle=elbowEdgeStyle;elbow=vertical;curved=0;rounded=0;" parent="1" edge="1">
          <mxGeometry relative="1" as="geometry">
            <mxPoint x="178" y="350" as="targetPoint" />
            <Array as="points">
              <mxPoint x="200" y="350" />
            </Array>
            <mxPoint x="318" y="350" as="sourcePoint" />
          </mxGeometry>
        </mxCell>
        <mxCell id="1E91Kec0WUk58oKre7sG-23" value="Publish UCXPhysicianDecisionMade Event&lt;br&gt;(IsPendingInQueue,&lt;br style=&quot;border-color: var(--border-color);&quot;&gt;SuspendCaseAssignmentExpirationTime,&lt;br&gt;SuspendExpirationTime,)" style="html=1;verticalAlign=bottom;endArrow=block;edgeStyle=elbowEdgeStyle;elbow=horizontal;curved=0;rounded=0;" parent="1" edge="1">
          <mxGeometry x="-0.056" y="-4" relative="1" as="geometry">
            <mxPoint x="738" y="584" as="sourcePoint" />
            <Array as="points" />
            <mxPoint x="488" y="584" as="targetPoint" />
            <mxPoint as="offset" />
          </mxGeometry>
        </mxCell>
        <mxCell id="1E91Kec0WUk58oKre7sG-27" value="&lt;div&gt;Consume XPLUpadsReviewCompleted Event&lt;/div&gt;" style="html=1;verticalAlign=bottom;endArrow=block;edgeStyle=elbowEdgeStyle;elbow=vertical;curved=0;rounded=0;" parent="1" edge="1">
          <mxGeometry relative="1" as="geometry">
            <mxPoint x="488" y="516" as="sourcePoint" />
            <Array as="points">
              <mxPoint x="552" y="516" />
            </Array>
            <mxPoint x="738" y="516" as="targetPoint" />
          </mxGeometry>
        </mxCell>
        <mxCell id="1E91Kec0WUk58oKre7sG-31" value="&lt;span style=&quot;font-size: 10px;&quot;&gt;UCX.Qualifier,&lt;br&gt;HeaderMicroUI&lt;br&gt;&lt;/span&gt;" style="shape=umlLifeline;perimeter=lifelinePerimeter;whiteSpace=wrap;html=1;container=0;dropTarget=0;collapsible=0;recursiveResize=0;outlineConnect=0;portConstraint=eastwest;newEdgeStyle={&quot;edgeStyle&quot;:&quot;elbowEdgeStyle&quot;,&quot;elbow&quot;:&quot;vertical&quot;,&quot;curved&quot;:0,&quot;rounded&quot;:0};" parent="1" vertex="1">
          <mxGeometry x="97" y="40" width="150" height="721" as="geometry" />
        </mxCell>
        <mxCell id="1E91Kec0WUk58oKre7sG-32" value="" style="html=1;points=[];perimeter=orthogonalPerimeter;outlineConnect=0;targetShapes=umlLifeline;portConstraint=eastwest;newEdgeStyle={&quot;edgeStyle&quot;:&quot;elbowEdgeStyle&quot;,&quot;elbow&quot;:&quot;vertical&quot;,&quot;curved&quot;:0,&quot;rounded&quot;:0};" parent="1E91Kec0WUk58oKre7sG-31" vertex="1">
          <mxGeometry x="70" y="81" width="10" height="600" as="geometry" />
        </mxCell>
        <mxCell id="1E91Kec0WUk58oKre7sG-33" value="Suspend Request &lt;br&gt;from Pathway in&lt;br&gt;UCX" style="html=1;verticalAlign=bottom;endArrow=block;edgeStyle=elbowEdgeStyle;elbow=vertical;curved=0;rounded=0;" parent="1" edge="1">
          <mxGeometry x="0.05" y="8" relative="1" as="geometry">
            <mxPoint x="47" y="278" as="sourcePoint" />
            <Array as="points">
              <mxPoint x="149" y="278" />
            </Array>
            <mxPoint x="167" y="278" as="targetPoint" />
            <mxPoint x="-1" as="offset" />
          </mxGeometry>
        </mxCell>
        <mxCell id="nl_diZd07pS_PIgy_KLt-1" value="Routing&lt;br&gt;Service" style="shape=umlLifeline;perimeter=lifelinePerimeter;whiteSpace=wrap;html=1;container=0;dropTarget=0;collapsible=0;recursiveResize=0;outlineConnect=0;portConstraint=eastwest;newEdgeStyle={&quot;edgeStyle&quot;:&quot;elbowEdgeStyle&quot;,&quot;elbow&quot;:&quot;vertical&quot;,&quot;curved&quot;:0,&quot;rounded&quot;:0};" parent="1" vertex="1">
          <mxGeometry x="798" y="40" width="76" height="720" as="geometry" />
        </mxCell>
        <mxCell id="nl_diZd07pS_PIgy_KLt-2" value="" style="html=1;points=[];perimeter=orthogonalPerimeter;outlineConnect=0;targetShapes=umlLifeline;portConstraint=eastwest;newEdgeStyle={&quot;edgeStyle&quot;:&quot;elbowEdgeStyle&quot;,&quot;elbow&quot;:&quot;vertical&quot;,&quot;curved&quot;:0,&quot;rounded&quot;:0};" parent="nl_diZd07pS_PIgy_KLt-1" vertex="1">
          <mxGeometry x="34" y="80" width="10" height="600" as="geometry" />
        </mxCell>
        <mxCell id="nl_diZd07pS_PIgy_KLt-3" value="Header&lt;br&gt;Service" style="shape=umlLifeline;perimeter=lifelinePerimeter;whiteSpace=wrap;html=1;container=0;dropTarget=0;collapsible=0;recursiveResize=0;outlineConnect=0;portConstraint=eastwest;newEdgeStyle={&quot;edgeStyle&quot;:&quot;elbowEdgeStyle&quot;,&quot;elbow&quot;:&quot;vertical&quot;,&quot;curved&quot;:0,&quot;rounded&quot;:0};" parent="1" vertex="1">
          <mxGeometry x="896" y="40" width="90" height="720.5" as="geometry" />
        </mxCell>
        <mxCell id="nl_diZd07pS_PIgy_KLt-4" value="" style="html=1;points=[];perimeter=orthogonalPerimeter;outlineConnect=0;targetShapes=umlLifeline;portConstraint=eastwest;newEdgeStyle={&quot;edgeStyle&quot;:&quot;elbowEdgeStyle&quot;,&quot;elbow&quot;:&quot;vertical&quot;,&quot;curved&quot;:0,&quot;rounded&quot;:0};" parent="nl_diZd07pS_PIgy_KLt-3" vertex="1">
          <mxGeometry x="40" y="80" width="10" height="600" as="geometry" />
        </mxCell>
        <mxCell id="nl_diZd07pS_PIgy_KLt-6" value="" style="endArrow=classic;html=1;rounded=0;" parent="1" edge="1">
          <mxGeometry width="50" height="50" relative="1" as="geometry">
            <mxPoint x="177" y="322" as="sourcePoint" />
            <mxPoint x="324" y="322" as="targetPoint" />
          </mxGeometry>
        </mxCell>
        <mxCell id="nl_diZd07pS_PIgy_KLt-7" value="&lt;font style=&quot;font-size: 11px;&quot;&gt;Get required qualifier&lt;br style=&quot;border-color: var(--border-color);&quot;&gt;&lt;span style=&quot;background-color: rgb(255, 255, 255);&quot;&gt;(UCX.Qulifier UI)-Ione&lt;/span&gt;&lt;/font&gt;" style="text;html=1;align=center;verticalAlign=middle;resizable=0;points=[];autosize=1;strokeColor=none;fillColor=none;" parent="1" vertex="1">
          <mxGeometry x="183" y="283" width="130" height="40" as="geometry" />
        </mxCell>
        <mxCell id="nl_diZd07pS_PIgy_KLt-12" value="Call pathway with list of Qualifiers" style="html=1;verticalAlign=bottom;endArrow=block;edgeStyle=elbowEdgeStyle;elbow=vertical;curved=0;rounded=0;" parent="1" edge="1">
          <mxGeometry x="-0.5462" relative="1" as="geometry">
            <mxPoint x="177" y="399" as="sourcePoint" />
            <Array as="points">
              <mxPoint x="386" y="399" />
            </Array>
            <mxPoint x="650" y="399" as="targetPoint" />
            <mxPoint as="offset" />
          </mxGeometry>
        </mxCell>
        <mxCell id="nl_diZd07pS_PIgy_KLt-13" value="&lt;div&gt;Consume UCXPhysicianDecisionMade Event&lt;/div&gt;" style="html=1;verticalAlign=bottom;endArrow=block;edgeStyle=elbowEdgeStyle;elbow=vertical;curved=0;rounded=0;" parent="1" edge="1">
          <mxGeometry relative="1" as="geometry">
            <mxPoint x="489" y="625" as="sourcePoint" />
            <Array as="points">
              <mxPoint x="553" y="625" />
            </Array>
            <mxPoint x="832" y="625" as="targetPoint" />
          </mxGeometry>
        </mxCell>
        <mxCell id="nl_diZd07pS_PIgy_KLt-14" value="&lt;div&gt;Consume UCXPhysicianDecisionMade Event&lt;/div&gt;" style="html=1;verticalAlign=bottom;endArrow=block;edgeStyle=elbowEdgeStyle;elbow=vertical;curved=0;rounded=0;" parent="1" edge="1">
          <mxGeometry x="-0.2545" relative="1" as="geometry">
            <mxPoint x="488" y="657" as="sourcePoint" />
            <Array as="points">
              <mxPoint x="552" y="657" />
            </Array>
            <mxPoint x="936" y="657" as="targetPoint" />
            <mxPoint as="offset" />
          </mxGeometry>
        </mxCell>
        <mxCell id="nl_diZd07pS_PIgy_KLt-15" value="Publish UCXRoutingRequestAssigned from ACL.Erss&lt;br&gt;IsPermanentAssignment: true" style="html=1;verticalAlign=bottom;endArrow=block;edgeStyle=elbowEdgeStyle;elbow=vertical;curved=0;rounded=0;" parent="1" target="1E91Kec0WUk58oKre7sG-8" edge="1">
          <mxGeometry x="-0.3789" relative="1" as="geometry">
            <mxPoint x="47" y="165" as="sourcePoint" />
            <Array as="points">
              <mxPoint x="150" y="165" />
            </Array>
            <mxPoint x="502.9999999999998" y="165" as="targetPoint" />
            <mxPoint as="offset" />
          </mxGeometry>
        </mxCell>
        <mxCell id="nl_diZd07pS_PIgy_KLt-17" value="&lt;div&gt;Consume UCXRoutingRequestAssigned&amp;nbsp;Event&lt;/div&gt;" style="html=1;verticalAlign=bottom;endArrow=block;edgeStyle=elbowEdgeStyle;elbow=vertical;curved=0;rounded=0;" parent="1" edge="1">
          <mxGeometry relative="1" as="geometry">
            <mxPoint x="487.9999999999998" y="207" as="sourcePoint" />
            <Array as="points">
              <mxPoint x="559" y="207" />
            </Array>
            <mxPoint x="835.5" y="207" as="targetPoint" />
          </mxGeometry>
        </mxCell>
        <mxCell id="1E91Kec0WUk58oKre7sG-9" value="XPLUpadsReviewCompleted: &lt;br&gt;ParkingLotCase" style="html=1;verticalAlign=bottom;endArrow=block;edgeStyle=elbowEdgeStyle;elbow=horizontal;curved=0;rounded=0;" parent="1" edge="1">
          <mxGeometry x="0.037" y="2" relative="1" as="geometry">
            <mxPoint x="650" y="468" as="sourcePoint" />
            <Array as="points">
              <mxPoint x="566" y="468" />
            </Array>
            <mxPoint x="488" y="468" as="targetPoint" />
            <mxPoint as="offset" />
          </mxGeometry>
        </mxCell>
      </root>
    </mxGraphModel>
  </diagram>
</mxfile>
